<?xml version="1.0" encoding="UTF-8"?><svg id="a" xmlns="http://www.w3.org/2000/svg" viewBox="0 0 283.46 283.46"><defs><style>.b{fill:#231f20;}</style></defs><path class="b" d="M168.22,122.6c-.79,.07-1.31,.69-1.21,1.91,.16,1.79,1.51,3.99,1.83,7.72,.41,4.73-2.37,13.36-6.35,19.06-4.17,6-8.64,7.77-10.72,7.95-1.94,.17-3.29-.87-3.52-3.52-.41-4.71,1.62-12.06,4.52-18.65,3-6.27,6.3-12.63,6.36-12.74l.23-.45-.5,.08c-.12,.02-12.07,2.01-19.89,7.89l-3.18-7.81h-20.99v.5h.05c2.18,0,2.65,.31,2.65,2.55v29.31c0,2.24-.47,2.55-2.65,2.55h-.05v.5h20.99l3.29-8.09c2.82-.62,5.88-2.27,8.71-4.79-1.55,3.98-2.69,7.9-2.46,10.49,.24,2.73,2.12,4.01,4.92,3.76,3.66-.32,8.47-3.13,12.63-9.27,4.87-7.15,7.88-17.31,7.18-25.34-.21-2.44-.69-3.7-1.83-3.6Zm-45.04,1.93h6.55c3.46,0,6.57,2.09,7.88,5.3l.95,2.33c-3.74,2.92-6.4,6.23-7.67,9.32h-10.36v-14.4c0-2.24,.47-2.55,2.65-2.55Zm14.43,29.11c-1.3,3.2-4.42,5.3-7.88,5.3h-6.55c-2.18,0-2.65-.31-2.65-2.55v-14.4h10.16c-.74,2.04-.86,3.97-.24,5.6,.77,2.04,2.31,3.38,4.46,3.85,.59,.13,1.2,.2,1.84,.2,.57,0,1.15-.07,1.75-.17l-.89,2.17Zm-2.59-2.69c-1.97-.44-3.38-1.66-4.09-3.54-1.53-4.04,1.73-10.05,8.11-14.98,6.81-5.26,17.04-7.44,19.41-7.89-.5,.97-7.77,14.92-10.22,20.95-4.37,4.21-9.42,6.31-13.21,5.46Z"/></svg>