<?xml version="1.0" encoding="UTF-8"?><svg id="a" xmlns="http://www.w3.org/2000/svg" xmlns:xlink="http://www.w3.org/1999/xlink" viewBox="0 0 566.93 283.46"><defs><style>.c,.d{fill:none;}.e{fill:#231f20;}.d{stroke:#231f20;stroke-miterlimit:10;stroke-width:.5px;}.f{clip-path:url(#b);}</style><clipPath id="b"><path class="c" d="M0,0V283.46H566.93V0H0ZM200.97,159.18c-8.02,0-14.06-7.5-14.06-17.44s6.04-17.45,14.06-17.45,14.06,7.5,14.06,17.45-6.04,17.44-14.06,17.44Zm36.28-.26h-6.74c-2.17,0-2.64-.31-2.65-2.5,0-.02,0-.03,0-.05v-29.29c0-2.24,.47-2.55,2.65-2.55l6.74,.02c7.9,0,13.85,7.39,13.85,17.19s-5.96,17.18-13.85,17.18Z"/></clipPath></defs><g><path class="e" d="M237.25,124.02h-15.78v.51h.71c2.18,0,2.65,.31,2.65,2.55v29.29c0,2.24-.47,2.55-2.65,2.55h-.71v.52h15.78c9.42,0,17.09-7.94,17.09-17.71s-7.67-17.71-17.09-17.71Zm0,34.89h-6.74c-2.17,0-2.64-.31-2.65-2.5,0-.02,0-.03,0-.05v-29.29c0-2.24,.47-2.55,2.65-2.55l6.74,.02c7.9,0,13.85,7.39,13.85,17.19s-5.96,17.18-13.85,17.18Z"/><path class="e" d="M267.5,124.44h.05v-.42h-8.43v.42h.05c2.18,0,2.65,.31,2.65,2.55v29.49c0,2.24-.47,2.55-2.65,2.55h-.05v.42h8.43v-.42h-.05c-2.18,0-2.65-.31-2.65-2.55v-29.49c0-2.24,.47-2.55,2.65-2.55Z"/><path class="e" d="M151.78,153.64c-1.3,3.2-4.42,5.3-7.88,5.3h-6.55c-2.18,0-2.65-.31-2.65-2.55v-14.4h5.59c2.35,0,4.25,1.9,4.25,4.25v2.7h.5v-14.41h-.5v2.7c0,2.35-1.9,4.25-4.25,4.25h-5.59v-14.4c0-2.24,.47-2.55,2.65-2.55h6.55c3.46,0,6.57,2.09,7.88,5.3l1.02,2.5,.47-.19-3.3-8.11h-20.99v.5h.05c2.18,0,2.65,.31,2.65,2.55v29.31c0,2.24-.47,2.55-2.65,2.55h-.05v.5h20.99l3.3-8.11-.47-.19-1.02,2.5Z"/><path class="e" d="M179.42,151.14l-1.02,2.5c-1.3,3.2-4.42,5.3-7.88,5.3h-3.71c-2.18,0-2.65-.31-2.65-2.55v-29.31c0-2.24,.47-2.55,2.65-2.55v-.5h-8.38v.5h.05c2.18,0,2.65,.31,2.65,2.55v29.31c0,2.24-.47,2.55-2.65,2.55h-.05v.5h18.16l3.3-8.11-.47-.19Z"/><path class="e" d="M297.23,151.14l-1.02,2.5c-1.3,3.2-4.42,5.3-7.88,5.3h-6.55c-2.18,0-2.65-.31-2.65-2.55v-29.31c0-2.24,.47-2.55,2.65-2.55h6.55c3.46,0,6.57,2.09,7.88,5.3l1.02,2.5,.47-.19-3.3-8.11h-20.99v.5h.05c2.18,0,2.65,.31,2.65,2.55v29.31c0,2.24-.47,2.55-2.65,2.55h-.05v.5h20.99l3.3-8.11-.47-.19Z"/><path class="e" d="M329.95,155.55c0-7.56,10.15-31.96,20.59-31.96,3.81,0,6.33,3.31,7.85,5.69,2.16-1.01,3.53-3.53,4.39-5.54l.36,.14-10.58,27.43c-.65,1.73-2.38,5.54-2.38,7.05,0,.72,.43,1.01,1.01,1.01,1.37,0,4.03-1.65,9.14-8.28l.29,.29c-5.26,6.91-8.06,8.64-10.08,8.64-1.73,0-2.52-1.29-2.52-2.74,0-1.87,1.44-5.11,2.09-6.77l7.7-19.87-15.48,21.81c-2.74,3.89-5.62,7.56-8.57,7.56-1.51,0-3.82-.86-3.82-4.46Zm11.95-3.38l16.05-22.6c-1.44-2.38-3.89-5.47-7.2-5.47-8.71,0-17.92,25.2-17.92,32.4,0,2.09,.72,2.81,1.65,2.81,2.02,0,4.68-3.24,7.42-7.13Z"/><path class="e" d="M384.59,157.28c0-1.94,1.08-4.32,2.23-6.69l8.57-17.57c1.58-3.31,2.95-6.12,2.95-7.49,0-.86-.43-1.29-1.22-1.29-1.73,0-4.03,2.38-11.01,11.52l-18.07,23.68c-.36,0-.94-.07-1.44-.07-.43,0-1.08,.07-1.44,.07l11.38-27.07c.65-1.58,2.52-5.76,2.52-7.05,0-.79-.43-1.08-1.01-1.08-1.29,0-4.03,1.66-9.14,8.28l-.29-.29c5.25-6.91,8.06-8.64,10.01-8.64,1.8,0,2.59,1.3,2.59,2.66,0,2.02-1.37,5.18-2.09,6.84l-10.44,24.69,17.06-22.39c7.13-9.36,9.36-11.81,11.95-11.81,2.16,0,2.81,1.73,2.81,2.81,0,2.02-1.29,4.97-2.3,6.98l-8.78,17.93c-1.58,3.31-2.66,5.69-2.66,6.98,0,.79,.43,1.08,1.01,1.08,1.3,0,4.03-1.65,9.14-8.28l.29,.29c-5.26,6.91-8.06,8.64-10.01,8.64-1.8,0-2.59-1.29-2.59-2.74Z"/><path class="e" d="M422.05,157.28c0-1.94,1.08-4.32,2.23-6.69l8.57-17.57c1.58-3.31,2.95-6.12,2.95-7.49,0-.86-.43-1.29-1.22-1.29-1.73,0-4.03,2.38-11.01,11.52l-18.07,23.68c-.36,0-.94-.07-1.44-.07-.43,0-1.08,.07-1.44,.07l11.38-27.07c.65-1.58,2.52-5.76,2.52-7.05,0-.79-.43-1.08-1.01-1.08-1.29,0-4.03,1.66-9.14,8.28l-.29-.29c5.25-6.91,8.06-8.64,10.01-8.64,1.8,0,2.59,1.3,2.59,2.66,0,2.02-1.37,5.18-2.09,6.84l-10.44,24.69,17.06-22.39c7.13-9.36,9.36-11.81,11.95-11.81,2.16,0,2.81,1.73,2.81,2.81,0,2.02-1.29,4.97-2.3,6.98l-8.78,17.93c-1.58,3.31-2.66,5.69-2.66,6.98,0,.79,.43,1.08,1.01,1.08,1.3,0,4.03-1.65,9.14-8.28l.29,.29c-5.26,6.91-8.06,8.64-10.01,8.64-1.8,0-2.59-1.29-2.59-2.74Z"/><path class="e" d="M328.66,126.2c-.21-2.44-.69-3.7-1.83-3.6-.79,.07-1.31,.69-1.21,1.91,.16,1.79,1.51,3.99,1.83,7.72,.41,4.73-2.37,13.36-6.35,19.06-4.17,6-8.64,7.77-10.72,7.95-1.94,.17-3.29-.87-3.52-3.52-.41-4.71,1.62-12.06,4.52-18.65,3-6.27,6.3-12.63,6.36-12.74l.23-.45-.5,.08c-.12,.02-12.33,2.05-20.14,8.08-6.55,5.06-9.88,11.31-8.28,15.56,.77,2.04,2.31,3.38,4.46,3.85,.59,.13,1.2,.2,1.84,.2,3.4,0,7.42-1.84,11.05-5.07-1.55,3.98-2.69,7.9-2.46,10.49,.24,2.73,2.12,4.01,4.92,3.76,3.66-.32,8.47-3.13,12.63-9.27,4.87-7.15,7.88-17.31,7.18-25.34Zm-35.05,24.75c-1.97-.44-3.38-1.66-4.09-3.54-1.53-4.04,1.73-10.05,8.11-14.98,6.81-5.26,17.04-7.44,19.41-7.89-.5,.97-7.77,14.92-10.22,20.95-4.37,4.21-9.42,6.31-13.21,5.46Z"/><path class="e" d="M450.01,125.73c0,1.24-.81,2.04-2.06,2.04s-2.06-.81-2.06-2.04,.81-2.04,2.06-2.04,2.06,.8,2.06,2.04Zm-3.67,0c0,.98,.63,1.62,1.6,1.62s1.6-.64,1.6-1.62-.62-1.62-1.6-1.62-1.6,.64-1.6,1.62Zm2.61-.51l-.42,.2c-.1-.23-.26-.34-.55-.34-.38,0-.61,.24-.61,.66s.23,.66,.61,.66c.29,0,.49-.12,.58-.37l.4,.17c-.16,.42-.47,.65-.99,.65-.67,0-1.09-.43-1.09-1.12s.41-1.12,1.09-1.12c.52,0,.82,.23,.98,.6Z"/><path class="e" d="M200.97,123.77c-9.56,0-17.34,8.06-17.34,17.97s7.78,17.97,17.34,17.97,17.33-8.06,17.33-17.97-7.78-17.97-17.33-17.97Zm-14.06,17.97c0-9.95,6.04-17.45,14.06-17.45s14.06,7.5,14.06,17.45-6.04,17.44-14.06,17.44-14.06-7.5-14.06-17.44Z"/></g><g class="f"><path class="d" d="M289.64,141.73h-12.39c-44.54,0-55.05,27.49-48.92,27.49s27.46-68.86-3.54-56.08c-20.02,8.25-51.32,62.65-41.93,62.65,8.39,0,73.93-88.39,2.68-88.39-66.37,0-123.93,72.04-123.93,72.04"/></g><path class="d" d="M277.24,141.73c-44.54,0-55.05,27.49-48.92,27.49"/><path class="d" d="M224.78,113.14c-20.02,8.25-51.32,62.65-41.93,62.65"/></svg>